<svg width="318.275px" height="122px" xmlns="http://www.w3.org/2000/svg" viewBox="90.86250000000001 14 318.275 122" style="background: rgba(0, 0, 0, 0);" preserveAspectRatio="xMidYMid"><defs><filter id="editing-vr"><feFlood flood-color="#f00" flood-opacity="0.7" result="c1"></feFlood><feFlood flood-color="#00f" flood-opacity="0.7" result="c3"></feFlood><feComposite operator="in" in="c1" in2="SourceAlpha" result="text-c1"></feComposite><feComposite operator="in" in="c3" in2="SourceAlpha" result="text-c3"></feComposite><feOffset in="text-c1" dx="5" dy="-1" result="text1"></feOffset><feOffset in="text-c3" dx="-5" dy="1" result="text3"></feOffset><feBlend in="SourceGraphic" in2="text1" mode="multiply" result="text4"></feBlend><feBlend in="text4" in2="text3" mode="multiply"></feBlend></filter></defs><g filter="url(#editing-vr)"><g transform="translate(141.70998013019562, 99)"><path d="M16.45-3.52L16.45-3.52L16.45-3.52Q14.46 1.28 8.13 1.28L8.13 1.28L8.13 1.28Q4.86 1.28 2.82-0.96L2.82-0.96L2.82-0.96Q1.09-2.94 1.09-4.93L1.09-4.93L1.09-4.93Q1.09-10.11 3.46-20.22L3.46-20.22L5.82-32.64L18.82-33.92L14.91-13.70L14.91-13.70Q13.82-8.96 13.82-7.30L13.82-7.30L13.82-7.30Q13.82-3.65 16.45-3.52ZM6.98-41.54L6.98-41.54L6.98-41.54Q6.98-44.03 9.06-45.38L9.06-45.38L9.06-45.38Q11.14-46.72 14.14-46.72L14.14-46.72L14.14-46.72Q17.15-46.72 18.98-45.38L18.98-45.38L18.98-45.38Q20.80-44.03 20.80-41.54L20.80-41.54L20.80-41.54Q20.80-39.04 18.78-37.76L18.78-37.76L18.78-37.76Q16.77-36.48 13.76-36.48L13.76-36.48L13.76-36.48Q10.75-36.48 8.86-37.76L8.86-37.76L8.86-37.76Q6.98-39.04 6.98-41.54ZM67.97 1.28L67.97 1.28L67.97 1.28Q60.22 1.28 60.22-4.74L60.22-4.74L60.22-4.74Q60.22-7.36 61.34-12.45L61.34-12.45L61.34-12.45Q62.46-17.54 62.85-19.58L62.85-19.58L62.85-19.58Q63.74-24.26 63.74-25.73L63.74-25.73L63.74-25.73Q63.74-28.99 61.31-28.99L61.31-28.99L61.31-28.99Q59.71-28.99 58.18-26.78L58.18-26.78L58.18-26.78Q56.64-24.58 55.94-20.16L55.94-20.16L51.97 0L39.49 1.28L42.94-16.13L42.94-16.13Q43.52-19.01 44.03-22.27L44.03-22.27L44.03-22.27Q44.54-25.54 44.54-26.05L44.54-26.05L44.54-26.05Q44.54-28.99 42.37-28.99L42.37-28.99L42.37-28.99Q40.90-28.99 39.30-26.82L39.30-26.82L39.30-26.82Q37.70-24.64 36.80-20.16L36.80-20.16L32.90 0L20.29 1.28L27.01-32.64L37.44-33.92L36.35-27.46L36.35-27.46Q38.02-30.91 41.09-32.42L41.09-32.42L41.09-32.42Q44.16-33.92 48.96-33.92L48.96-33.92L48.96-33.92Q51.71-33.92 53.50-32.58L53.50-32.58L53.50-32.58Q55.30-31.23 55.87-29.06L55.87-29.06L55.87-29.06Q56.96-31.30 59.74-32.61L59.74-32.61L59.74-32.61Q62.53-33.92 65.95-33.92L65.95-33.92L65.95-33.92Q69.38-33.92 71.07-33.18L71.07-33.18L71.07-33.18Q72.77-32.45 73.79-31.23L73.79-31.23L73.79-31.23Q75.52-28.99 75.52-24.90L75.52-24.90L75.52-24.90Q75.52-20.86 73.79-12.48L73.79-12.48L73.79-12.48Q72.90-8.38 72.90-6.88L72.90-6.88L72.90-6.88Q72.90-5.38 73.76-4.48L73.76-4.48L73.76-4.48Q74.62-3.58 75.90-3.46L75.90-3.46L75.90-3.46Q75.26-1.28 73.06 0L73.06 0L73.06 0Q70.85 1.28 67.97 1.28ZM100.99-33.92L100.99-33.92L100.99-33.92Q103.30-33.92 105.09-33.41L105.09-33.41L105.09-33.41Q105.15-33.66 105.28-34.37L105.28-34.37L105.60-36.35L105.60-36.35Q105.86-37.63 106.24-39.74L106.24-39.74L107.26-44.80L120-46.08L112.90-8.96L112.90-8.96Q112.83-8.58 112.83-7.94L112.83-7.94L112.83-6.91L112.83-6.91Q112.83-5.50 113.54-4.45L113.54-4.45L113.54-4.45Q114.24-3.39 115.39-3.39L115.39-3.39L115.39-3.39Q114.11-0.38 110.21 0.90L110.21 0.90L110.21 0.90Q108.86 1.28 106.98 1.28L106.98 1.28L106.98 1.28Q105.09 1.28 103.36 0.29L103.36 0.29L103.36 0.29Q101.63-0.70 101.12-2.37L101.12-2.37L101.12-2.37Q100.10-0.70 98.05 0.29L98.05 0.29L98.05 0.29Q96 1.28 93.02 1.28L93.02 1.28L93.02 1.28Q90.05 1.28 87.58 0.51L87.58 0.51L87.58 0.51Q85.12-0.26 83.58-1.92L83.58-1.92L83.58-1.92Q80.77-5.18 80.77-12.61L80.77-12.61L80.77-12.61Q80.77-22.21 86.40-28.03L86.40-28.03L86.40-28.03Q92.03-33.92 100.99-33.92ZM100.54-30.08L100.54-30.08L100.54-30.08Q98.18-30.08 96.90-27.52L96.90-27.52L96.90-27.52Q95.62-24.96 94.30-18.62L94.30-18.62L94.30-18.62Q92.99-12.29 92.99-6.59L92.99-6.59L92.99-6.59Q92.99-2.69 95.30-2.69L95.30-2.69L95.30-2.69Q97.34-2.69 98.78-4.74L98.78-4.74L98.78-4.74Q100.22-6.78 100.80-10.18L100.80-10.18L104.26-28.93L104.26-28.93Q102.91-30.08 100.54-30.08ZM141.38-2.69L141.38-2.69L141.38-2.69Q138.30 1.28 130.69 1.28L130.69 1.28L130.69 1.28Q126.72 1.28 123.84-1.12L123.84-1.12L123.84-1.12Q120.96-3.52 120.96-6.98L120.96-6.98L120.96-6.98Q120.96-8.90 121.15-9.86L121.15-9.86L125.44-32.64L138.43-33.92L133.76-9.22L133.76-9.22Q133.50-7.81 133.50-6.98L133.50-6.98L133.50-6.98Q133.50-3.26 135.74-3.26L135.74-3.26L135.74-3.26Q138.24-3.26 140.03-6.66L140.03-6.66L140.03-6.66Q140.61-7.74 140.86-9.15L140.86-9.15L145.41-32.64L158.02-33.92L153.28-8.96L153.28-8.96Q153.09-8 153.09-6.98L153.09-6.98L153.09-6.98Q153.09-5.95 153.66-4.83L153.66-4.83L153.66-4.83Q154.24-3.71 156.10-3.46L156.10-3.46L156.10-3.46Q155.71-1.92 154.37-0.90L154.37-0.90L154.37-0.90Q151.55 1.28 148.51 1.28L148.51 1.28L148.51 1.28Q145.47 1.28 143.68 0.19L143.68 0.19L143.68 0.19Q141.89-0.90 141.38-2.69ZM207.55 1.28L207.55 1.28L207.55 1.28Q199.81 1.28 199.81-4.74L199.81-4.74L199.81-4.74Q199.81-7.36 200.93-12.45L200.93-12.45L200.93-12.45Q202.05-17.54 202.43-19.58L202.43-19.58L202.43-19.58Q203.33-24.26 203.33-25.73L203.33-25.73L203.33-25.73Q203.33-28.99 200.90-28.99L200.90-28.99L200.90-28.99Q199.30-28.99 197.76-26.78L197.76-26.78L197.76-26.78Q196.22-24.58 195.52-20.16L195.52-20.16L191.55 0L179.07 1.28L182.53-16.13L182.53-16.13Q183.10-19.01 183.62-22.27L183.62-22.27L183.62-22.27Q184.13-25.54 184.13-26.05L184.13-26.05L184.13-26.05Q184.13-28.99 181.95-28.99L181.95-28.99L181.95-28.99Q180.48-28.99 178.88-26.82L178.88-26.82L178.88-26.82Q177.28-24.64 176.38-20.16L176.38-20.16L172.48 0L159.87 1.28L166.59-32.64L177.02-33.92L175.94-27.46L175.94-27.46Q177.60-30.91 180.67-32.42L180.67-32.42L180.67-32.42Q183.74-33.92 188.54-33.92L188.54-33.92L188.54-33.92Q191.30-33.92 193.09-32.58L193.09-32.58L193.09-32.58Q194.88-31.23 195.46-29.06L195.46-29.06L195.46-29.06Q196.54-31.30 199.33-32.61L199.33-32.61L199.33-32.61Q202.11-33.92 205.54-33.92L205.54-33.92L205.54-33.92Q208.96-33.92 210.66-33.18L210.66-33.18L210.66-33.18Q212.35-32.45 213.38-31.23L213.38-31.23L213.38-31.23Q215.10-28.99 215.10-24.90L215.10-24.90L215.10-24.90Q215.10-20.86 213.38-12.48L213.38-12.48L213.38-12.48Q212.48-8.38 212.48-6.88L212.48-6.88L212.48-6.88Q212.48-5.38 213.34-4.48L213.34-4.48L213.34-4.48Q214.21-3.58 215.49-3.46L215.49-3.46L215.49-3.46Q214.85-1.28 212.64 0L212.64 0L212.64 0Q210.43 1.28 207.55 1.28Z" fill="#444"></path></g></g><style>text {
  font-size: 64px;
  font-family: Arial Black;
  dominant-baseline: central;
  text-anchor: middle;
}</style></svg>